<svg width="71" height="90" viewBox="0 0 71 90" fill="none" xmlns="http://www.w3.org/2000/svg">
<path d="M7.37177 0.322253C3.94772 1.14805 1.20849 3.88729 0.302122 7.3919C0.0402829 8.39897 0 13.0315 0 42.3373C0 66.2251 0.0604243 76.4368 0.221556 77.182C0.825799 80.1025 2.8198 82.6403 5.55904 83.9294C7.13007 84.6948 7.17035 84.6948 9.66789 84.6948C12.0647 84.6948 12.246 84.6746 13.4948 84.0704C14.2199 83.728 15.5492 82.882 16.4757 82.1771C18.2481 80.8276 19.2754 80.5054 20.363 80.9283C20.6651 81.0492 22.9814 82.8015 25.4991 84.8156C28.0369 86.8499 30.5949 88.7432 31.2192 89.0655C32.7298 89.8308 34.2405 90.0927 36.1539 89.9718C38.9133 89.8107 39.7995 89.3072 45.2377 84.9768C48.2589 82.5598 50.2932 81.0895 50.7967 80.9283C51.8844 80.6061 52.831 80.9485 54.5229 82.2375C56.3759 83.6877 56.8593 83.9697 58.1484 84.4128C63.4254 86.2255 69.1657 83.1237 70.6159 77.6453C70.8375 76.8396 70.8979 72.0661 70.8979 52.8109V29.0037H60.666C49.6285 29.0037 49.266 28.9835 47.1511 27.8959C45.7211 27.1909 43.8681 25.3782 43.143 24.0086C41.9143 21.7125 41.8942 21.4909 41.8942 10.2318V-1.01382e-05L25.2372 0.0201313C11.5612 0.0402728 8.33856 0.0805556 7.37177 0.322253ZM30.5747 32.8306C30.9373 33.0521 31.4005 33.5154 31.6221 33.8779C32.1055 34.6634 32.1659 36.2345 31.7429 37.02C31.5818 37.3221 30.4941 38.5104 29.3259 39.6786L27.191 41.7935L39.9606 41.8942C52.4685 41.9949 52.7504 41.9949 53.2943 42.4179C54.3618 43.2034 54.684 43.8479 54.684 45.1168C54.684 46.3857 54.3618 47.0303 53.2943 47.8158C52.7504 48.2388 52.549 48.2388 35.8921 48.2992C24.4316 48.3395 18.792 48.2992 18.2884 48.1381C17.3821 47.8762 16.375 46.7684 16.1937 45.8218C15.8715 44.1098 15.952 43.9889 21.5111 38.3896C24.351 35.5295 26.9694 33.0118 27.2917 32.8104C28.1175 32.2867 29.7086 32.3069 30.5747 32.8306ZM52.831 55.0667C54.2208 55.6307 54.9861 57.1614 54.684 58.7526C54.5632 59.4173 53.7978 60.2833 49.2861 64.8152C46.3857 67.7357 43.7674 70.2534 43.4652 70.4145C43.1631 70.5756 42.4783 70.6965 41.9546 70.6965C40.1419 70.6965 38.873 69.4276 38.873 67.6148C38.873 67.071 38.9737 66.4466 39.0945 66.2049C39.2154 65.9632 40.3232 64.7346 41.5518 63.4858L43.8076 61.23H31.2595C17.5432 61.23 17.8856 61.2501 16.8584 60.0416C15.5291 58.4505 16.1333 55.8925 18.0266 55.0667C18.933 54.6639 51.8844 54.6639 52.831 55.0667Z" fill="white"/>
<path d="M48.3796 10.4533C48.44 20.2622 48.4601 20.5241 48.863 21.0679C49.0845 21.37 49.5276 21.8131 49.8298 22.0347C50.3736 22.4375 50.6354 22.4577 60.4443 22.5181C67.8161 22.5584 70.4949 22.5181 70.4949 22.3368C70.4949 22.216 70.1726 21.511 69.7899 20.7658C69.1656 19.5976 67.8966 18.2481 60.1623 10.5339C52.0655 2.47734 51.139 1.61125 49.9305 1.02715C49.1852 0.684747 48.5206 0.402767 48.4601 0.402767C48.3796 0.402767 48.3594 4.93459 48.3796 10.4533Z" fill="white"/>
</svg>
