<svg width="90" height="90" viewBox="0 0 90 90" fill="none" xmlns="http://www.w3.org/2000/svg">
<path d="M48.8239 1.50308C46.6614 -0.501026 43.321 -0.501026 41.1761 1.50308L1.79421 38.0691C0.106414 39.6513 -0.456185 42.0949 0.387713 44.2397C1.23161 46.3844 3.28861 47.8084 5.60933 47.8084H8.42232V78.7489C8.42232 84.9546 13.4681 90 19.6743 90H70.3081C76.5143 90 81.5601 84.9546 81.5601 78.7489V47.8084H84.3731C86.6938 47.8084 88.7684 46.3844 89.6123 44.2397C90.4562 42.0949 89.8936 39.6338 88.2058 38.0691L48.8239 1.50308ZM42.1782 56.2467H47.8042C52.4632 56.2467 56.2432 60.0264 56.2432 64.685V81.5617H33.7392V64.685C33.7392 60.0264 37.5192 56.2467 42.1782 56.2467Z" fill="white"/>
</svg>
